<?xml version="1.0" standalone="no"?>
<!DOCTYPE svg PUBLIC "-//W3C//DTD SVG 20010904//EN"
 "http://www.w3.org/TR/2001/REC-SVG-20010904/DTD/svg10.dtd">
<svg version="1.0" xmlns="http://www.w3.org/2000/svg"
 width="512.000000pt" height="512.000000pt" viewBox="0 0 512.000000 512.000000"
 preserveAspectRatio="xMidYMid meet">
<metadata>
Created by potrace 1.11, written by Peter Selinger 2001-2013
</metadata>
<g transform="translate(0.000000,512.000000) scale(0.100000,-0.100000)"
fill="#000000" stroke="none">
<path d="M1278 5113 c705 -2 1859 -2 2565 0 705 1 128 2 -1283 2 -1411 0
-1988 -1 -1282 -2z"/>
<path d="M3080 5061 c-14 -5 -41 -19 -61 -32 -20 -13 -63 -41 -95 -62 -33 -21
-75 -49 -94 -63 -28 -20 -42 -24 -70 -20 -145 24 -429 15 -634 -20 -404 -69
-800 -253 -1125 -523 -386 -320 -670 -806 -776 -1329 -14 -68 -25 -133 -25
-145 -1 -14 -15 -32 -41 -50 -51 -35 -73 -85 -65 -146 6 -40 3 -46 -28 -76
-53 -50 -69 -89 -61 -149 4 -28 7 -80 6 -115 -2 -96 32 -139 125 -157 31 -6
39 -3 53 15 16 21 17 19 35 -76 10 -54 34 -150 53 -213 193 -639 615 -1143
1197 -1430 543 -268 1121 -320 1701 -154 100 29 296 105 364 141 24 12 46 23
47 23 2 0 4 -15 4 -34 0 -19 9 -45 22 -61 12 -16 23 -47 26 -76 5 -49 15 -62
26 -33 13 34 5 83 -19 118 -25 38 -32 66 -16 66 11 0 61 -58 61 -69 0 -5 18
-20 40 -35 22 -14 40 -31 40 -37 0 -7 18 -38 40 -71 22 -32 43 -72 47 -88 3
-17 12 -30 19 -30 24 0 16 63 -13 107 -16 22 -44 65 -64 94 -20 30 -48 90 -63
134 -25 75 -25 81 -9 92 29 22 51 15 84 -27 28 -34 59 -53 59 -34 0 13 -53 94
-61 94 -21 0 -6 17 39 45 136 86 348 281 477 440 219 269 402 644 474 970 42
189 53 304 53 515 0 383 -71 689 -241 1035 -153 310 -337 546 -596 763 -187
157 -469 318 -698 398 -126 43 -129 47 -120 152 3 38 3 81 -1 96 -10 42 -69
71 -116 57z m-305 -193 c12 -11 -51 -65 -109 -93 -89 -45 -128 -98 -151 -209
-3 -16 -22 -43 -43 -60 -96 -82 -110 -109 -118 -231 -4 -59 -20 -115 -33 -115
-16 0 -45 -69 -46 -109 l0 -44 -110 -27 c-184 -45 -369 -133 -519 -245 -67
-50 -121 -63 -165 -40 -26 13 -31 13 -53 -4 -31 -24 -128 -35 -266 -29 -67 3
-122 -25 -148 -74 -23 -44 -11 -83 44 -143 76 -82 132 -167 132 -199 0 -35 -2
-34 -108 38 -111 75 -142 73 -177 -10 -12 -29 -19 -34 -46 -34 -17 0 -49 5
-70 12 -61 18 -109 -1 -154 -62 -37 -50 -42 -54 -109 -65 -50 -8 -84 -31 -88
-58 -2 -18 -12 -23 -54 -28 -56 -7 -120 -44 -141 -81 -19 -34 -17 -4 7 103 76
340 245 692 466 967 360 450 928 762 1522 837 104 14 525 16 537 3z m750 -217
c808 -386 1315 -1196 1315 -2100 0 -673 -312 -1341 -828 -1771 -145 -122 -222
-170 -271 -170 -28 0 -41 4 -41 14 0 10 12 12 50 8 40 -4 50 -1 50 10 0 10
-11 15 -29 16 -39 1 -84 25 -105 57 -15 23 -15 26 -1 32 9 3 29 -4 45 -16 33
-24 40 -26 40 -9 0 20 -43 58 -66 58 -67 0 -70 78 -5 185 43 73 94 194 110
266 29 126 3 334 -55 438 l-24 44 46 71 c92 143 156 301 196 484 32 140 32
444 0 584 -44 200 -111 360 -219 521 -78 117 -232 281 -335 357 -67 49 -74 57
-75 89 0 20 -1 70 -2 112 -2 86 10 121 46 140 38 20 44 40 28 94 -20 65 -19
98 6 155 28 64 20 91 -36 130 -25 17 -45 36 -45 43 -3 149 -18 200 -71 231
-16 9 -33 26 -39 36 -9 17 2 15 92 -16 57 -20 157 -62 223 -93z m-1279 -710
c-17 -27 -26 -55 -26 -83 0 -42 -1 -43 -18 -22 -9 12 -29 24 -44 28 -16 3 -28
12 -28 18 0 6 -10 22 -22 35 -12 13 -19 25 -17 28 6 5 173 43 177 39 2 -1 -8
-20 -22 -43z m-284 -77 c-3 -23 5 -67 22 -118 35 -103 29 -119 -54 -169 -64
-38 -80 -43 -80 -28 0 10 -35 47 -80 85 -30 25 -39 27 -81 22 -36 -5 -51 -2
-68 11 -21 18 -21 18 53 71 63 45 269 161 286 162 4 0 4 -16 2 -36z m1416
-136 c141 -103 293 -273 386 -431 135 -229 196 -458 197 -731 0 -290 -65 -523
-213 -770 l-42 -69 -16 24 c-33 52 -97 112 -143 135 l-48 25 26 42 c106 171
165 388 165 607 0 242 -63 450 -197 654 -61 93 -240 271 -326 326 l-68 43 28
23 c15 13 37 26 48 29 59 18 76 31 107 81 18 29 34 54 36 54 2 0 29 -19 60
-42z m-521 -88 c14 -11 40 -20 57 -20 17 0 48 -9 69 -20 20 -11 49 -20 63 -20
36 0 174 -93 267 -180 129 -120 231 -272 291 -432 121 -321 82 -732 -97 -1015
l-26 -41 -63 23 c-61 22 -167 34 -316 35 -51 0 -65 4 -80 22 -43 53 -51 58
-101 58 -42 0 -53 4 -74 29 -41 49 -126 303 -142 426 -4 28 -13 73 -20 100
-55 197 -38 678 32 899 19 61 35 90 63 118 21 21 41 38 45 38 4 0 18 -9 32
-20z m-861 -147 c-8 -20 -88 -13 -110 10 -18 18 -14 22 54 61 l45 26 8 -41 c5
-22 6 -48 3 -56z m-1765 -626 c-8 -8 -11 0 -10 29 1 39 1 39 11 11 7 -21 7
-32 -1 -40z m838 -108 c-15 -99 -6 -399 16 -499 61 -281 191 -516 400 -726
215 -216 441 -341 730 -404 55 -11 100 -22 101 -23 1 -1 4 -25 8 -53 11 -99
51 -181 137 -284 77 -93 211 -154 374 -171 130 -14 268 8 403 62 126 50 164
36 144 -52 -7 -28 -10 -55 -6 -60 9 -16 24 -10 24 11 0 27 21 70 31 64 5 -3 9
-13 9 -22 0 -9 7 -30 16 -47 8 -16 17 -47 19 -68 l4 -39 -67 -30 c-168 -76
-426 -143 -652 -169 -131 -15 -482 -6 -601 15 -409 71 -794 242 -1104 491
-433 347 -741 880 -830 1438 -18 111 -19 108 58 207 72 92 131 154 212 219
119 97 167 120 375 178 151 43 193 52 203 43 4 -4 2 -40 -4 -81z m1163 45 c29
-25 73 -55 98 -67 64 -31 127 -123 135 -197 3 -30 19 -112 35 -181 38 -160 38
-174 2 -133 -33 37 -112 144 -167 224 -22 32 -66 95 -99 140 -60 84 -86 147
-86 210 0 64 11 65 82 4z m-952 -19 c72 -21 75 -24 73 -51 -6 -102 -3 -309 6
-364 59 -365 312 -704 646 -865 92 -45 223 -88 308 -100 26 -4 47 -9 47 -12 0
-3 -9 -39 -19 -81 -11 -43 -21 -101 -22 -130 l-3 -54 -45 7 c-140 19 -346 94
-480 174 -142 84 -303 222 -404 346 -229 282 -350 694 -308 1053 17 140 12
134 74 115 29 -9 86 -26 127 -38z m229 -50 c54 -25 115 -69 161 -115 14 -14
37 -34 52 -45 14 -11 57 -58 94 -105 38 -47 150 -168 250 -270 198 -201 206
-210 278 -318 27 -41 62 -83 78 -95 24 -18 28 -28 28 -68 0 -25 -11 -80 -24
-120 -13 -41 -29 -98 -36 -127 -7 -30 -18 -56 -24 -58 -20 -8 -186 33 -270 65
-146 56 -259 131 -385 254 -246 240 -362 535 -348 879 3 70 8 132 12 138 11
18 79 10 134 -15z m573 -143 c52 -25 66 -39 139 -142 130 -186 199 -326 199
-407 0 -30 -2 -33 -19 -24 -32 18 -201 193 -259 271 -31 41 -63 81 -72 90 -8
8 -26 31 -40 50 -13 19 -46 58 -72 85 -26 28 -48 56 -48 63 0 16 56 41 90 41
14 0 51 -12 82 -27z m1457 -2053 c23 -23 41 -43 39 -44 -6 -5 -67 -35 -71 -35
-3 0 -7 19 -9 43 -3 23 -8 50 -12 60 -13 29 9 19 53 -24z"/>
</g>
</svg>
